# xmcd CD database file
#
# Track frame offsets:
#	230
#	16347
#	30447
#	43977
#	60492
#	76385
#	90032
#	105425
#	119582
#	137207
#
# Disc length: 2098 seconds
#
# Revision: 0
# Processed by: cddbd v1.5.2PL0 Copyright (c) Steve Scherf et al.
# Submitted via: CDex 1.79
#
DISCID=75082f0a
DTITLE=Jill Markey - Making A Bad Impression
DYEAR=1998
DGENRE=Country
TTITLE0=Every Cowgirl`s Nightmare
TTITLE1=Too Bad You`re No Good
TTITLE2=Live While I Can
TTITLE3=I Didn`t Mean To Love You
TTITLE4=Stone Cold Mailbox
TTITLE5=Some
TTITLE6=By Heart
TTITLE7=Love Thing
TTITLE8=Goodbye Hwy
TTITLE9=Stay By Me
EXTD=YEAR: 1998
EXTT0=
EXTT1=
EXTT2=
EXTT3=
EXTT4=
EXTT5=
EXTT6=
EXTT7=
EXTT8=
EXTT9=
PLAYORDER=
